<svg width="273" height="290" viewBox="0 0 273 290" fill="none" xmlns="http://www.w3.org/2000/svg">
<g clip-path="url(#clip0_10_159)">
<path d="M162.99 247.63H109.03C102.33 247.63 96.88 242.18 96.88 235.48C96.88 219.79 91.37 204.57 81.36 192.63C70.64 179.84 64.74 163.6 64.74 146.89C64.74 127.77 72.27 109.79 85.94 96.2701C99.62 82.75 117.68 75.41 136.81 75.63C155.68 75.84 173.38 83.3501 186.66 96.7601C199.95 110.19 207.27 127.99 207.27 146.89C207.27 163.66 201.33 179.96 190.53 192.77C180.6 204.56 175.13 219.73 175.13 235.48C175.13 242.18 169.68 247.63 162.98 247.63H162.99ZM136.01 81.7401C118.8 81.7401 102.57 88.4301 90.24 100.62C77.74 112.98 70.86 129.41 70.86 146.89C70.86 162.16 76.25 177.01 86.05 188.7C96.98 201.74 103 218.35 103 235.48C103 238.81 105.71 241.52 109.04 241.52H163C166.33 241.52 169.04 238.81 169.04 235.49C169.04 218.29 175.02 201.73 185.88 188.84C195.74 177.13 201.18 162.24 201.18 146.9C201.18 129.63 194.49 113.35 182.34 101.08C170.2 88.8101 154.02 81.9501 136.77 81.7601C136.52 81.7601 136.28 81.7601 136.03 81.7601L136.01 81.7401Z" fill="white"/>
<path d="M162.99 259.87H109.03C107.34 259.87 105.97 258.5 105.97 256.81C105.97 255.12 107.34 253.75 109.03 253.75H162.99C164.68 253.75 166.05 255.12 166.05 256.81C166.05 258.5 164.68 259.87 162.99 259.87Z" fill="white"/>
<path d="M162.99 269.86H109.03C107.34 269.86 105.97 268.49 105.97 266.8C105.97 265.11 107.34 263.74 109.03 263.74H162.99C164.68 263.74 166.05 265.11 166.05 266.8C166.05 268.49 164.68 269.86 162.99 269.86Z" fill="white"/>
<path d="M162.99 279.84H109.03C107.34 279.84 105.97 278.47 105.97 276.78C105.97 275.09 107.34 273.72 109.03 273.72H162.99C164.68 273.72 166.05 275.09 166.05 276.78C166.05 278.47 164.68 279.84 162.99 279.84Z" fill="white"/>
<path d="M149.74 289.83H122.28C120.59 289.83 119.22 288.46 119.22 286.77C119.22 285.08 120.59 283.71 122.28 283.71H149.74C151.43 283.71 152.8 285.08 152.8 286.77C152.8 288.46 151.43 289.83 149.74 289.83Z" fill="white"/>
<path d="M165.8 196.35C164.73 196 163.58 196.57 163.22 197.64L158.1 213.1C155.08 213.15 146.5 212.91 139.46 208.95C144.57 204.21 147.15 197.68 147.15 189.52C147.15 184.32 145.78 180.36 143.09 177.76C140.41 175.18 137.25 174.81 136.15 174.76C136.15 174.76 136.08 174.76 135.98 174.76H135.93C135.83 174.76 135.78 174.76 135.76 174.76C134.67 174.81 131.57 175.18 128.93 177.73C126.24 180.33 124.87 184.3 124.87 189.52C124.87 197.67 127.46 204.21 132.56 208.95C125.52 212.91 116.94 213.15 113.92 213.1L108.8 197.64C108.45 196.57 107.29 195.99 106.22 196.35C105.15 196.7 104.57 197.86 104.93 198.93L120.26 245.22C120.54 246.08 121.34 246.62 122.19 246.62C122.4 246.62 122.62 246.59 122.83 246.52C123.9 246.17 124.48 245.01 124.12 243.94L115.26 217.2C119.72 217.15 128.67 216.39 136 211.64C143.33 216.39 152.28 217.15 156.74 217.2L147.88 243.94C147.53 245.01 148.11 246.16 149.17 246.52C149.38 246.59 149.6 246.62 149.81 246.62C150.66 246.62 151.46 246.08 151.74 245.22L167.07 198.93C167.42 197.86 166.84 196.71 165.78 196.35H165.8ZM136.68 205.98C136.46 206.18 136.24 206.38 136.01 206.58C135.78 206.39 135.56 206.19 135.34 205.98C131.09 202.04 128.94 196.51 128.94 189.53C128.94 185.49 129.87 182.53 131.7 180.72C133.42 179.02 135.46 178.86 135.91 178.84H135.96C136.41 178.85 138.53 179 140.3 180.75C142.14 182.56 143.07 185.51 143.07 189.52C143.07 196.5 140.92 202.03 136.67 205.97L136.68 205.98Z" fill="white"/>
<path d="M136.01 44.97C134.32 44.97 132.95 43.6 132.95 41.91V3.06C132.95 1.37 134.32 0 136.01 0C137.7 0 139.07 1.37 139.07 3.06V41.91C139.07 43.6 137.7 44.97 136.01 44.97Z" fill="white"/>
<path d="M242.37 245.28C241.59 245.28 240.81 244.98 240.21 244.38L212.74 216.91C211.55 215.72 211.55 213.78 212.74 212.59C213.93 211.4 215.87 211.4 217.06 212.59L244.53 240.06C245.72 241.25 245.72 243.19 244.53 244.38C243.93 244.98 243.15 245.28 242.37 245.28Z" fill="white"/>
<path d="M29.65 245.28C28.87 245.28 28.09 244.98 27.49 244.38C26.3 243.19 26.3 241.25 27.49 240.06L54.96 212.59C56.15 211.4 58.09 211.4 59.28 212.59C60.47 213.78 60.47 215.72 59.28 216.91L31.81 244.38C31.21 244.98 30.43 245.28 29.65 245.28Z" fill="white"/>
<path d="M52.35 93.27C51.57 93.27 50.79 92.97 50.19 92.37L22.72 64.9C21.53 63.71 21.53 61.77 22.72 60.58C23.91 59.39 25.85 59.39 27.04 60.58L54.51 88.05C55.7 89.24 55.7 91.18 54.51 92.37C53.91 92.97 53.13 93.27 52.35 93.27Z" fill="white"/>
<path d="M219.68 93.27C218.9 93.27 218.12 92.97 217.52 92.37C216.33 91.18 216.33 89.24 217.52 88.05L244.99 60.58C246.18 59.39 248.12 59.39 249.31 60.58C250.5 61.77 250.5 63.71 249.31 64.9L221.84 92.37C221.24 92.97 220.46 93.27 219.68 93.27Z" fill="white"/>
<path d="M268.96 157.93H230.11C228.42 157.93 227.05 156.56 227.05 154.87C227.05 153.18 228.42 151.81 230.11 151.81H268.96C270.65 151.81 272.02 153.18 272.02 154.87C272.02 156.56 270.65 157.93 268.96 157.93Z" fill="white"/>
<path d="M41.91 157.93H3.06C1.37 157.93 0 156.56 0 154.87C0 153.18 1.37 151.81 3.06 151.81H41.91C43.6 151.81 44.97 153.18 44.97 154.87C44.97 156.56 43.6 157.93 41.91 157.93Z" fill="white"/>
</g>
<defs>
<clipPath id="clip0_10_159">
<rect width="272.02" height="289.83" fill="white"/>
</clipPath>
</defs>
</svg>
